<?xml version="1.0" encoding="UTF-8"?>
<!DOCTYPE svg PUBLIC "-//W3C//DTD SVG 1.1//EN" "http://www.w3.org/Graphics/SVG/1.1/DTD/svg11.dtd">
<!-- Creator: CorelDRAW X7 -->
<svg xmlns="http://www.w3.org/2000/svg" xml:space="preserve" width="200mm" height="60mm" version="1.1" style="shape-rendering:geometricPrecision; text-rendering:geometricPrecision; image-rendering:optimizeQuality; fill-rule:evenodd; clip-rule:evenodd"
viewBox="0 0 20000 6000"
 xmlns:xlink="http://www.w3.org/1999/xlink">
 <defs>
  <style type="text/css">
   <![CDATA[
    .fil0 {fill:#2B2A29;fill-rule:nonzero}
   ]]>
  </style>
 </defs>
 <g id="Ebene_x0020_1">
  <metadata id="CorelCorpID_0Corel-Layer"/>
  <path class="fil0" d="M3741 1406l428 0 0 -401 413 0 755 401 623 0 -863 -401 247 0c145,0 251,-16 319,-47 68,-32 101,-85 101,-159l0 -249c0,-74 -33,-127 -101,-158 -68,-32 -174,-48 -319,-48l-1603 0 0 1062zm1407 -879c68,0 117,6 149,16 31,10 47,33 47,69l0 127c0,36 -16,59 -47,69 -32,11 -81,16 -149,16l-979 0 0 -297 979 0z"/>
  <path id="1" class="fil0" d="M7044 1207l0 -673 1436 0 0 673 -1436 0zm-435 -612l0 560c0,49 8,91 24,124 15,32 41,58 78,77 36,18 84,31 143,39 59,7 132,11 219,11l1378 0c87,0 160,-4 219,-11 60,-8 107,-21 144,-39 36,-19 62,-45 78,-77 15,-33 23,-75 23,-124l0 -560c0,-49 -8,-90 -23,-123 -16,-33 -42,-59 -78,-77 -37,-19 -84,-32 -144,-39 -59,-8 -132,-12 -219,-12l-1378 0c-87,0 -160,4 -219,12 -59,7 -107,20 -143,39 -37,18 -63,44 -78,77 -16,33 -24,74 -24,123z"/>
  <polygon id="2" class="fil0" points="10286,1406 10724,1406 10724,925 11692,344 11181,344 10536,752 9894,344 9314,344 10286,931 "/>
  <path id="3" class="fil0" d="M11638 1406l435 0 218 -232 1185 0 225 232 489 0 -1073 -1062 -420 0 -1059 1062zm837 -424l417 -432 403 432 -820 0z"/>
  <polygon id="4" class="fil0" points="14792,1406 16630,1406 16630,1207 15227,1207 15227,344 14792,344 "/>
  <path class="fil0" d="M1158 4315c-18,-6 -30,-10 -36,-13 -29,-13 -41,-31 -38,-50 3,-22 9,-40 19,-51 6,-8 19,-17 37,-25 28,0 51,0 70,0 114,-8 211,-48 288,-118 41,-37 77,-88 108,-156 22,-47 44,-113 69,-197l545 -1790 923 0 1140 3789 -1047 -4 -192 -573 -1159 0 -210 573 -1015 0 336 -1162c108,-6 194,-11 256,-17 189,-23 327,-62 414,-120 87,-57 157,-119 209,-183 65,-81 116,-177 150,-286l358 -1196 -93 -358 -377 1225c-44,152 -84,267 -121,345 -53,113 -113,193 -182,241 -90,59 -192,98 -307,118 -37,5 -86,8 -145,8zm610 -2320c16,-56 58,-84 126,-84 38,0 62,14 75,42 3,8 6,23 9,42l-530 1739c-13,45 -29,83 -47,116 -19,32 -44,57 -75,73 -16,9 -37,14 -65,17 -28,3 -54,6 -79,8l586 -1953zm704 1145l-368 1162 670 0 -79 228 -293 54 190 173 -46 248 261 -126 251 135 -42 -253 206 -177 -290 -50 -111 -232 -349 -1162z"/>
  <path id="1" class="fil0" d="M5075 1885l991 0 834 2345 814 -2340 1411 0 0 3785 -1006 -5 0 -2029 -670 2021 -1099 0 -689 -2000 0 2004 -1006 0 0 -1132c72,-11 129,-23 173,-34 130,-36 248,-90 354,-159 59,-40 116,-102 172,-186 68,-104 102,-202 102,-295l0 -808 -205 -526 0 1220c0,82 -7,149 -21,201 -14,52 -42,101 -86,149 -43,48 -107,93 -191,134 -83,43 -149,64 -196,64 -33,0 -60,-9 -80,-27 -21,-18 -26,-39 -17,-62 6,-11 55,-34 147,-69 91,-35 156,-75 193,-120 28,-31 47,-67 58,-107 11,-41 17,-86 17,-133 0,-31 0,-53 0,-67l0 -1824zm-420 1824l0 -1575c0,-37 0,-63 0,-80 0,-53 7,-93 19,-120 12,-27 40,-40 83,-40 38,0 63,14 75,42 12,28 18,67 18,118 0,36 0,63 0,80l0 1579c0,56 -7,101 -22,135 -16,34 -50,59 -103,75 -31,9 -50,-5 -58,-40 -8,-34 -12,-64 -12,-86 0,-42 0,-72 0,-88zm3628 -624l255 97 -69 -231 191 -177 -275 -38 -121 -228 -126 228 -252 46 192 173 -42 219 247 -89zm-1383 1154l-126 232 -298 29 237 189 -60 254 261 -123 269 135 -60 -266 200 -198 -288 -16 -135 -236z"/>
  <path id="2" class="fil0" d="M10484 5700l-1005 0 0 -3785 1542 0c173,0 319,17 437,50 118,34 236,96 353,186 94,73 184,192 271,357 77,152 116,268 116,346 0,20 -3,33 -9,42 -6,11 -17,14 -32,9 -26,-4 -53,-9 -82,-18 -30,-8 -58,-59 -86,-151 -28,-92 -65,-176 -112,-253 -59,-95 -132,-175 -219,-239 -167,-121 -374,-182 -619,-182l-503 0c-38,0 -56,35 -56,105 0,65 18,98 56,98l475 0c87,0 158,5 214,16 56,11 122,36 201,72 105,50 190,143 255,278 93,191 152,303 177,336 44,57 97,99 161,127 64,28 125,55 184,80 27,17 27,35 0,54 -28,20 -74,30 -139,30 -81,0 -160,-28 -239,-84 -59,-42 -105,-91 -139,-148 -68,-139 -116,-239 -144,-298 -50,-104 -112,-179 -187,-223 -99,-59 -212,-89 -340,-89l-466 0c-27,0 -44,6 -50,17 -9,17 -15,48 -15,93 0,61 22,93 65,93l401 0c63,0 118,7 168,22 49,16 98,45 147,89 48,43 96,125 147,246 49,121 103,208 162,261 87,79 216,145 387,198 56,17 133,36 233,59 -16,120 -37,216 -65,286 -91,219 -244,393 -462,522 -140,85 -327,145 -563,182 -164,25 -330,37 -498,37 -31,0 -61,0 -89,0 -9,0 -20,-1 -33,-4l0 1183zm-4 -2926l0 872 -79 243 -279 39 195 181 -51 252 261 -118 261 123 -57 -257 196 -198 -293 -22 -75 -243 312 0c134,0 232,-32 296,-95 63,-63 95,-182 95,-356 0,-188 -47,-312 -140,-371 -52,-33 -145,-50 -279,-50l-363 0z"/>
  <path id="3" class="fil0" d="M12575 1911l1053 0 0 3789 -1053 4 0 -3793zm545 1465l-112 236 -274 13 195 205 -88 254 284 -123 266 118 -65 -244 195 -207 -270 -12 -131 -240z"/>
  <path id="4" class="fil0" d="M14973 5700l-1005 0 0 -3785 1542 0c174,0 319,17 437,50 118,34 236,96 354,186 93,73 183,192 270,357 77,152 116,268 116,346 0,20 -3,33 -9,42 -6,11 -17,14 -32,9 -25,-4 -52,-9 -82,-18 -30,-8 -58,-59 -86,-151 -28,-92 -65,-176 -112,-253 -59,-95 -132,-175 -219,-239 -167,-121 -374,-182 -619,-182l-503 0c-38,0 -56,35 -56,105 0,65 18,98 56,98l475 0c87,0 158,5 214,16 57,11 123,36 201,72 105,50 190,143 255,278 93,191 152,303 178,336 43,57 96,99 160,127 64,28 125,55 184,80 28,17 28,35 0,54 -28,20 -74,30 -139,30 -81,0 -160,-28 -238,-84 -59,-42 -106,-91 -139,-148 -69,-139 -117,-239 -145,-298 -50,-104 -112,-179 -187,-223 -99,-59 -212,-89 -339,-89l-466 0c-28,0 -45,6 -51,17 -9,17 -15,48 -15,93 0,61 22,93 66,93l400 0c63,0 119,7 168,22 50,16 98,45 147,89 48,43 96,125 147,246 49,121 103,208 162,261 87,79 216,145 387,198 56,17 133,36 233,59 0,59 -2,107 -5,143 -16,112 -49,213 -100,301 -51,89 -117,168 -198,238 -25,22 -62,51 -111,84l577 1440 -1057 4 -596 -1599 223 -194 -293 -22 -75 -243 312 0c134,0 232,-32 296,-95 63,-63 95,-182 95,-356 0,-188 -47,-312 -140,-371 -52,-33 -145,-50 -279,-50l-363 0 0 872 -79 243 -279 39 196 181 -52 252 218 -101 0 1440z"/>
  <path id="5" class="fil0" d="M18201 3426l1210 0c59,0 92,2 98,4 18,12 28,33 28,64 0,36 -13,57 -40,63 -26,5 -53,9 -81,9l-1085 0c-43,0 -77,4 -101,12 -22,9 -35,36 -35,80 0,45 11,73 31,82 20,10 54,15 100,15l1080 0c47,0 75,2 84,4 31,9 47,31 47,68 0,25 -9,44 -26,56 -17,13 -51,19 -100,19l-1071 0c-25,0 -50,0 -74,0 -47,9 -71,42 -71,101 0,37 9,63 27,78 16,16 56,24 118,24l1066 0c47,0 75,1 84,4 28,8 42,30 42,67 0,54 -41,80 -121,80l-1210 0 0 640 1340 0 0 804 -2361 0 0 -3789 2352 0 0 863 -1607 0 -139 -207 -136 207 -302 25 229 211 -43 240 256 -101 247 101 -51 -245 215 -164 0 585z"/>
 </g>
</svg>
